<?xml version="1.0" encoding="utf-8"?>
<!-- Generator: Adobe Illustrator 24.3.0, SVG Export Plug-In . SVG Version: 6.00 Build 0)  -->
<svg version="1.1" id="Capa_1" xmlns="http://www.w3.org/2000/svg" xmlns:xlink="http://www.w3.org/1999/xlink" x="0px" y="0px"
	 viewBox="0 0 512 512" style="enable-background:new 0 0 512 512;" xml:space="preserve">
<style type="text/css">
	.st0{fill:#12B675;}
</style>
<g>
	<g>
		<path class="st0" d="M392.53,337.07c28.24,0,51.2,22.96,51.2,51.2s-22.96,51.2-51.2,51.2s-51.2-22.96-51.2-51.2
			S364.3,337.07,392.53,337.07z M392.53,422.4c18.83,0,34.13-15.31,34.13-34.13c0-18.83-15.31-34.13-34.13-34.13
			s-34.13,15.31-34.13,34.13C358.4,407.09,373.71,422.4,392.53,422.4z"/>
	</g>
</g>
<g>
	<g>
		<path class="st0" d="M102.4,337.07c28.24,0,51.2,22.96,51.2,51.2s-22.96,51.2-51.2,51.2s-51.2-22.96-51.2-51.2
			C51.2,360.03,74.16,337.07,102.4,337.07z M102.4,422.4c18.83,0,34.13-15.31,34.13-34.13c0-18.83-15.31-34.13-34.13-34.13
			c-18.83,0-34.13,15.31-34.13,34.13S83.57,422.4,102.4,422.4z"/>
	</g>
</g>
<g>
	<g>
		<path class="st0" d="M1.36,289.78l76.8-119.47c1.57-2.44,4.28-3.92,7.18-3.92h93.87c4.72,0,8.53,3.82,8.53,8.53v213.33
			c0,4.72-3.81,8.53-8.53,8.53h-34.13v-17.07h25.6V183.47H89.99L17.07,296.91v82.83h42.67v17.07H8.53c-4.72,0-8.53-3.81-8.53-8.53
			V294.4C0,292.77,0.47,291.16,1.36,289.78z"/>
	</g>
</g>
<g>
	<g>
		<path class="st0" d="M136.53,277.33V217.6H68.27v-17.07h76.8c4.72,0,8.53,3.82,8.53,8.53v76.8c0,4.72-3.81,8.53-8.53,8.53h-128
			v-17.07L136.53,277.33L136.53,277.33z"/>
	</g>
</g>
<g>
	<g>
		<path class="st0" d="M179.2,106.67h324.27c4.71,0,8.53,3.82,8.53,8.53v273.07c0,4.72-3.82,8.53-8.53,8.53H435.2v-17.07h59.73v-256
			h-307.2v256h162.13v17.07H179.2c-4.72,0-8.53-3.81-8.53-8.53V115.2C170.67,110.49,174.48,106.67,179.2,106.67z"/>
	</g>
</g>
<g>
	<g>
		<rect x="452.27" y="345.6" class="st0" width="51.2" height="17.07"/>
	</g>
</g>
<g>
	<g>
		<rect x="187.73" y="345.6" class="st0" width="145.07" height="17.07"/>
	</g>
</g>
<g>
	<g>
		<rect x="8.53" y="345.6" class="st0" width="34.13" height="17.07"/>
	</g>
</g>
<g>
	<g>
		<rect x="179.2" y="140.8" class="st0" width="298.67" height="17.07"/>
	</g>
</g>
<g>
	<g>
		<rect x="384" y="379.73" class="st0" width="17.07" height="17.07"/>
	</g>
</g>
<g>
	<g>
		<rect x="93.87" y="379.73" class="st0" width="17.07" height="17.07"/>
	</g>
</g>
<g>
	<g>
		<rect x="358.4" y="72.53" class="st0" width="119.47" height="17.07"/>
	</g>
</g>
<g>
	<g>
		<rect x="494.93" y="72.53" class="st0" width="17.07" height="17.07"/>
	</g>
</g>
</svg>
