<?xml version="1.0" encoding="utf-8"?>
<!-- Generator: Adobe Illustrator 24.3.0, SVG Export Plug-In . SVG Version: 6.00 Build 0)  -->
<svg version="1.1" id="Layer_35" xmlns="http://www.w3.org/2000/svg" xmlns:xlink="http://www.w3.org/1999/xlink" x="0px" y="0px"
	 viewBox="0 0 512 512" style="enable-background:new 0 0 512 512;" xml:space="preserve">
<style type="text/css">
	.st0{fill:#12B675;}
</style>
<path class="st0" d="M78.19,301.26c-7.85,1.82-15.96,2.74-24.14,2.74H40v48h16v-32.02c8.74-0.14,17.41-1.19,25.81-3.15L78.19,301.26
	z"/>
<path class="st0" d="M40.13,368.38c0.27,5.76,0.98,11.54,2.1,17.18l15.7-3.13c-0.97-4.86-1.58-9.84-1.82-14.82L40.13,368.38z"/>
<path class="st0" d="M170.34,338.34L96,412.69l-18.34-18.34l-11.31,11.31L96,435.31l85.66-85.66L170.34,338.34z"/>
<path class="st0" d="M480,8H96C82.77,8,72,18.77,72,32v237.73c-5.81,1.45-11.81,2.27-17.94,2.27H8v90.81
	c0,63.98,40.78,120.55,101.47,140.78l2.53,0.84l2.53-0.84c16.26-5.42,31.02-13.51,44.02-23.58H248v-16h6.7l15.38,5.13
	c5.71,1.9,11.67,2.86,17.71,2.86H400c13.23,0,24-10.77,24-24c0-6.17-2.41-11.74-6.24-16c3.84-4.26,6.24-9.83,6.24-16
	s-2.41-11.74-6.24-16c3.84-4.26,6.24-9.83,6.24-16c0-2.82-0.58-5.49-1.47-8H480c13.23,0,24-10.77,24-24V32C504,18.77,493.23,8,480,8
	z M488,32v40H360V24h120C484.41,24,488,27.58,488,32z M312,88v32h-16V88h-16v32h-16V88h-16v32h-16V24h112v96h-16V88H312z M96,24h120
	v48H88V32C88,27.58,91.59,24,96,24z M112,487.54c-52.75-18.75-88-68.54-88-124.73V288h30.06c21.45,0,41.74-7.46,57.94-21.14
	c16.19,13.69,36.5,21.14,57.94,21.14H200v74.81C200,418.99,164.75,468.78,112,487.54L112,487.54z M232,464h-55.94
	C201.12,437.16,216,401.36,216,362.81V352h16V464z M408,384c0,4.42-3.59,8-8,8h-24v16h24c4.41,0,8,3.58,8,8s-3.59,8-8,8h-24v16h24
	c4.41,0,8,3.58,8,8s-3.59,8-8,8H287.79c-4.32,0-8.57-0.69-12.65-2.05L257.3,448H248v-80h6.31c7.93,0,15.6-2.32,22.18-6.72
	C303.74,343.13,320,312.74,320,280v-52.69c0-2.7,3.74-4.26,5.66-2.34c6.67,6.67,10.34,15.54,10.34,24.97V320c0,13.23,10.77,24,24,24
	h32h8c4.41,0,8,3.58,8,8s-3.59,8-8,8h-8h-16v16h16h8C404.41,376,408,379.58,408,384L408,384z M400,328h-8h-32c-4.41,0-8-3.58-8-8
	v-40h104v48H400z M480,360h-57.47c0.9-2.51,1.47-5.18,1.47-8s-0.58-5.49-1.47-8H472v-80H352v-14.06c0-13.7-5.34-26.58-15.03-36.29
	c-3.6-3.58-8.58-5.65-13.66-5.65c-10.65,0-19.31,8.66-19.31,19.31V280c0,27.38-13.6,52.78-36.38,67.97
	c-3.95,2.64-8.55,4.03-13.31,4.03H248v-16h-32v-64h-46.06c-19.75,0-38.32-7.69-52.29-21.66l-5.66-5.66l-5.66,5.66
	c-5.47,5.47-11.66,9.94-18.34,13.4V88h128v48h144V88h128v264C488,356.42,484.41,360,480,360L480,360z"/>
<path class="st0" d="M104,40h16v16h-16V40z"/>
<path class="st0" d="M136,40h16v16h-16V40z"/>
<path class="st0" d="M168,40h16v16h-16V40z"/>
<path class="st0" d="M456,40h16v16h-16V40z"/>
<path class="st0" d="M392,40h16v16h-16V40z"/>
<path class="st0" d="M424,40h16v16h-16V40z"/>
<path class="st0" d="M104,136h16v16h-16V136z"/>
<path class="st0" d="M104,104h16v16h-16V104z"/>
<path class="st0" d="M104,168h16v64h-16V168z"/>
<path class="st0" d="M368,296h72v16h-72V296z"/>
</svg>
