<?xml version="1.0" encoding="utf-8"?>
<!-- Generator: Adobe Illustrator 24.3.0, SVG Export Plug-In . SVG Version: 6.00 Build 0)  -->
<svg version="1.1" id="Capa_1" xmlns="http://www.w3.org/2000/svg" xmlns:xlink="http://www.w3.org/1999/xlink" x="0px" y="0px"
	 viewBox="0 0 512 512" style="enable-background:new 0 0 512 512;" xml:space="preserve">
<style type="text/css">
	.st0{fill:#12B675;}
</style>
<path class="st0" d="M189,234.99h19.5c0,4.14,3.36,7.5,7.5,7.5s7.5-3.36,7.5-7.5v-7.5c0-4.14-3.36-7.5-7.5-7.5h-27
	c-4.14,0-7.5,3.36-7.5,7.5S184.86,234.99,189,234.99z"/>
<path class="st0" d="M296,242.49c4.14,0,7.5-3.36,7.5-7.5H323c4.14,0,7.5-3.36,7.5-7.5s-3.36-7.5-7.5-7.5h-27
	c-4.14,0-7.5,3.36-7.5,7.5v7.5C288.5,239.13,291.86,242.49,296,242.49z"/>
<path class="st0" d="M128.69,269.35C132.26,336.47,188,389.99,256,389.99s123.74-53.51,127.31-120.64
	c19.96-3.48,35.19-20.92,35.19-41.86c0-11.66-4.72-22.24-12.36-29.93c7.32-3.72,12.36-11.32,12.36-20.07
	c0-11.57-8.78-21.12-20.02-22.36c-0.49-30.66-10.54-59.67-29.15-84.04C352.01,48.42,327.91,31.23,301,22.25V12.21
	c0-3.42-2.32-6.41-5.63-7.26c-25.59-6.58-53.15-6.58-78.74,0C213.32,5.8,211,8.79,211,12.21v10.04
	c-26.91,8.98-51.01,26.17-68.33,48.84c-18.61,24.37-28.66,53.38-29.15,84.04c-11.25,1.24-20.02,10.79-20.02,22.36
	c0,8.76,5.03,16.36,12.36,20.07c-7.63,7.69-12.36,18.26-12.36,29.93C93.5,248.43,108.73,265.87,128.69,269.35L128.69,269.35z
	 M301,38.17c48.27,18.24,81.42,64.73,82.45,116.82H301V38.17z M211,38.17v39.32c0,4.14,3.36,7.5,7.5,7.5s7.5-3.36,7.5-7.5V18.15
	c19.62-4.2,40.38-4.2,60,0v136.84h-60v-47.5c0-4.14-3.36-7.5-7.5-7.5s-7.5,3.36-7.5,7.5v47.5h-82.45
	C129.59,102.9,162.73,56.41,211,38.17z M116,169.99h280c4.14,0,7.5,3.36,7.5,7.5s-3.36,7.5-7.5,7.5H116c-4.14,0-7.5-3.36-7.5-7.5
	S111.86,169.99,116,169.99z M128.5,201.03v11.46c0,4.14,3.36,7.5,7.5,7.5s7.5-3.36,7.5-7.5v-12.5h225v12.5c0,4.14,3.36,7.5,7.5,7.5
	s7.5-3.36,7.5-7.5v-11.46c11.53,3.27,20,13.9,20,26.46c0,12.56-8.47,23.18-20,26.45v-11.45c0-4.14-3.36-7.5-7.5-7.5
	s-7.5,3.36-7.5,7.5v20c0,62.03-50.47,112.5-112.5,112.5c-62.03,0-112.5-50.47-112.5-112.5v-20c0-4.14-3.36-7.5-7.5-7.5
	s-7.5,3.36-7.5,7.5v11.45c-11.53-3.27-20-13.89-20-26.45C108.5,214.92,116.97,204.3,128.5,201.03z"/>
<path class="st0" d="M225.7,287.43c8.09,8.1,18.86,12.55,30.3,12.55c11.45,0,22.21-4.46,30.3-12.55c2.93-2.93,2.93-7.68,0-10.61
	c-2.93-2.93-7.68-2.93-10.61,0c-5.26,5.26-12.26,8.16-19.7,8.16s-14.44-2.9-19.7-8.16c-2.93-2.93-7.68-2.93-10.61,0
	C222.77,279.76,222.77,284.51,225.7,287.43L225.7,287.43z"/>
<path class="st0" d="M444.5,404.99H163.71c-3.1-8.73-11.43-15-21.21-15c-5.76,0-11.02,2.18-15,5.75c-3.98-3.57-9.24-5.75-15-5.75
	s-11.02,2.18-15,5.75c-3.98-3.57-9.24-5.75-15-5.75c-2.63,0-5.15,0.46-7.5,1.29v-23.8c9.35-7.03,15-18.16,15-29.99v-30
	c0-4.14-3.36-7.5-7.5-7.5H75v-22.5c0-4.14-3.36-7.5-7.5-7.5s-7.5,3.36-7.5,7.5v22.5H45v-22.5c0-4.14-3.36-7.5-7.5-7.5
	s-7.5,3.36-7.5,7.5v22.5h-7.5c-4.14,0-7.5,3.36-7.5,7.5v30c0,11.83,5.65,22.96,15,29.99v23.8c-2.35-0.83-4.87-1.29-7.5-1.29
	c-12.41,0-22.5,10.09-22.5,22.5v92c0,4.14,3.36,7.5,7.5,7.5h497c4.14,0,7.5-3.36,7.5-7.5v-32C512,435.27,481.72,404.99,444.5,404.99
	z M30,496.99H15v-84.5c0-4.14,3.36-7.5,7.5-7.5s7.5,3.36,7.5,7.5V496.99z M63.74,356.97c-2.32,1.34-3.74,3.81-3.74,6.49v133.52H45
	V363.46c0-2.68-1.43-5.15-3.74-6.49C34.31,352.95,30,345.49,30,337.49v-22.5h45v22.5C75,345.49,70.69,352.96,63.74,356.97z
	 M90,496.99H75v-84.5c0-4.14,3.36-7.5,7.5-7.5s7.5,3.36,7.5,7.5V496.99z M120,496.99h-15v-84.5c0-4.14,3.36-7.5,7.5-7.5
	s7.5,3.36,7.5,7.5V496.99z M150,496.99h-15v-84.5c0-4.14,3.36-7.5,7.5-7.5s7.5,3.36,7.5,7.5V496.99z M248.5,496.99H165v-77h41.85
	l41.65,42.56V496.99z M227.83,419.99h56.33L256,448.77L227.83,419.99z M497,496.99H263.5v-34.44l41.65-42.56H444.5
	c28.95,0,52.5,23.55,52.5,52.5V496.99z"/>
</svg>
