<?xml version="1.0" encoding="utf-8"?>
<!-- Generator: Adobe Illustrator 24.3.0, SVG Export Plug-In . SVG Version: 6.00 Build 0)  -->
<svg version="1.1" id="Layer_1" xmlns="http://www.w3.org/2000/svg" xmlns:xlink="http://www.w3.org/1999/xlink" x="0px" y="0px"
	 viewBox="0 0 488 488" style="enable-background:new 0 0 488 488;" xml:space="preserve">
<style type="text/css">
	.st0{fill:#00B16B;}
</style>
<path class="st0" d="M316,56h-32c0-13.25-10.75-24-24-24h-24v-8c0-13.25-10.75-24-24-24h-64c-13.25,0-24,10.75-24,24v8h-24
	c-13.25,0-24,10.75-24,24H44C21.92,56.03,4.03,73.92,4,96v120c0,4.42,3.58,8,8,8s8-3.58,8-8V96c0-13.25,10.75-24,24-24h32v16H44
	c-4.42,0-8,3.58-8,8v352c0,4.42,3.58,8,8,8h272c4.42,0,8-3.58,8-8V96c0-4.42-3.58-8-8-8h-32V72h32c13.25,0,24,10.75,24,24v352
	c0,13.25-10.75,24-24,24H44c-13.25,0-24-10.75-24-24v-96c0-4.42-3.58-8-8-8s-8,3.58-8,8v96c0.03,22.08,17.92,39.97,40,40h272
	c22.08-0.03,39.97-17.92,40-40V96C355.97,73.92,338.08,56.03,316,56z M140,24c0-4.42,3.58-8,8-8h64c4.42,0,8,3.58,8,8v8h-80V24z
	 M308,104v336H52V104h24c0,13.25,10.75,24,24,24h96c4.42,0,8-3.58,8-8s-3.58-8-8-8h-96c-4.42,0-8-3.58-8-8V56c0-4.42,3.58-8,8-8h160
	c4.42,0,8,3.58,8,8v48c0,4.42-3.58,8-8,8s-8,3.58-8,8s3.58,8,8,8c13.25,0,24-10.75,24-24H308z"/>
<path class="st0" d="M252,80c0-4.42-3.58-8-8-8H116c-4.42,0-8,3.58-8,8s3.58,8,8,8h128C248.42,88,252,84.42,252,80z"/>
<path class="st0" d="M253.54,317.09c-3.12-3.12-8.19-3.12-11.31,0l-39.59,39.6l-16.98-16.97c-2.01-2.08-4.98-2.91-7.78-2.18
	c-2.8,0.73-4.98,2.91-5.71,5.71c-0.73,2.8,0.1,5.77,2.18,7.78l22.63,22.62c3.12,3.12,8.19,3.12,11.31,0l45.25-45.26
	C256.66,325.28,256.66,320.21,253.54,317.09z"/>
<path class="st0" d="M212,264c-44.18,0-80,35.82-80,80s35.82,80,80,80c4.42,0,8-3.58,8-8s-3.58-8-8-8
	c-30.53,0-56.81-21.57-62.77-51.52c-5.95-29.95,10.07-59.93,38.28-71.61c28.21-11.68,60.74-1.81,77.71,23.57
	c16.96,25.39,13.63,59.22-7.96,80.81c-3.04,3.14-2.99,8.12,0.09,11.21c3.09,3.09,8.08,3.13,11.21,0.1
	c22.88-22.88,29.73-57.29,17.34-87.18C273.53,283.49,244.36,264,212,264z"/>
<path class="st0" d="M148,176h80c4.42,0,8-3.58,8-8s-3.58-8-8-8h-80c-4.42,0-8,3.58-8,8S143.58,176,148,176z"/>
<path class="st0" d="M84,216h144c4.42,0,8-3.58,8-8s-3.58-8-8-8H84c-4.42,0-8,3.58-8,8S79.58,216,84,216z"/>
<path class="st0" d="M84,256h72c4.42,0,8-3.58,8-8s-3.58-8-8-8H84c-4.42,0-8,3.58-8,8S79.58,256,84,256z"/>
<path class="st0" d="M116,280H84c-4.42,0-8,3.58-8,8s3.58,8,8,8h32c4.42,0,8-3.58,8-8S120.42,280,116,280z"/>
<path class="st0" d="M100,320H84c-4.42,0-8,3.58-8,8s3.58,8,8,8h16c4.42,0,8-3.58,8-8S104.42,320,100,320z"/>
<path class="st0" d="M260,216h16c4.42,0,8-3.58,8-8s-3.58-8-8-8h-16c-4.42,0-8,3.58-8,8S255.58,216,260,216z"/>
<path class="st0" d="M284,168c0,4.42-3.58,8-8,8s-8-3.58-8-8s3.58-8,8-8S284,163.58,284,168z"/>
<path class="st0" d="M476,128h-24v-24c0-4.42-3.58-8-8-8h-32V72c0-4.42,3.58-8,8-8s8,3.58,8,8s3.58,8,8,8s8-3.58,8-8
	c0-13.25-10.75-24-24-24s-24,10.75-24,24v24c-4.42,0-8,3.58-8,8v232c0,0.21,0.11,0.39,0.12,0.6c0.02,0.21-0.07,0.35-0.04,0.54
	l7.92,55.42V416c0,13.25,10.75,24,24,24s24-10.75,24-24v-23.44l7.92-55.42c0-0.18-0.06-0.36-0.04-0.54s0.12-0.39,0.12-0.6V176h16v72
	c0,4.42,3.58,8,8,8s8-3.58,8-8V136C484,131.58,480.42,128,476,128z M436,112v16h-32v-16H436z M429.06,384h-18.12l-5.71-40h29.55
	L429.06,384z M404,144h32v16h-32V144z M428,416c0,4.42-3.58,8-8,8s-8-3.58-8-8v-16h16V416z M436,328h-32V176h32V328z M452,144h16v16
	h-16V144z"/>
</svg>
