<?xml version="1.0" encoding="utf-8"?>
<!-- Generator: Adobe Illustrator 24.3.0, SVG Export Plug-In . SVG Version: 6.00 Build 0)  -->
<svg version="1.1" id="Capa_1" xmlns="http://www.w3.org/2000/svg" xmlns:xlink="http://www.w3.org/1999/xlink" x="0px" y="0px"
	 viewBox="0 0 297 297" style="enable-background:new 0 0 297 297;" xml:space="preserve">
<path d="M271.59,64.85V9.9c0-5.47-4.43-9.9-9.9-9.9H131.01c-5.47,0-9.9,4.43-9.9,9.9v54.94h-4.46v183.15h29.7v21.29
	c0,4.37-3.55,7.92-7.92,7.92H76.07c-4.29,0-7.92-2.95-7.92-6.44v-6.43h22.77c5.47,0,9.9-4.43,9.9-9.9V58.41c0-5.47-4.43-9.9-9.9-9.9
	H25.58c-5.47,0-9.9,4.43-9.9,9.9v196.02c0,5.47,4.43,9.9,9.9,9.9h22.77v6.43c0,14.47,12.43,26.24,27.72,26.24h62.37
	c15.29,0,27.72-12.43,27.72-27.72v-21.29h105.27c5.47,0,9.9-4.43,9.9-9.9V74.75C281.33,69.33,276.98,64.94,271.59,64.85z
	 M156.26,197.01h-16.33c-4.38,0-7.92-3.55-7.92-7.92s3.54-7.92,7.92-7.92h16.33c4.38,0,7.92,3.55,7.92,7.92
	C164.18,193.46,160.63,197.01,156.26,197.01z M156.26,164.34h-16.33c-4.38,0-7.92-3.55-7.92-7.92s3.54-7.92,7.92-7.92h16.33
	c4.38,0,7.92,3.55,7.92,7.92C164.18,160.79,160.63,164.34,156.26,164.34z M156.26,131.67h-16.33c-4.38,0-7.92-3.55-7.92-7.92
	c0-4.37,3.54-7.92,7.92-7.92h16.33c4.38,0,7.92,3.55,7.92,7.92C164.18,128.12,160.63,131.67,156.26,131.67z M205.26,197.01h-16.34
	c-4.37,0-7.92-3.55-7.92-7.92s3.55-7.92,7.92-7.92h16.34c4.37,0,7.92,3.55,7.92,7.92C213.18,193.46,209.63,197.01,205.26,197.01z
	 M205.26,164.34h-16.34c-4.37,0-7.92-3.55-7.92-7.92s3.55-7.92,7.92-7.92h16.34c4.37,0,7.92,3.55,7.92,7.92
	C213.18,160.79,209.63,164.34,205.26,164.34z M205.26,131.67h-16.34c-4.37,0-7.92-3.55-7.92-7.92c0-4.37,3.55-7.92,7.92-7.92h16.34
	c4.37,0,7.92,3.55,7.92,7.92C213.18,128.12,209.63,131.67,205.26,131.67z M163.68,49.99c-4.38,0-7.92-3.55-7.92-7.92
	s3.54-7.92,7.92-7.92h65.34c4.37,0,7.92,3.55,7.92,7.92s-3.55,7.92-7.92,7.92L163.68,49.99z M254.26,197.01h-16.33
	c-4.38,0-7.92-3.55-7.92-7.92s3.54-7.92,7.92-7.92h16.33c4.38,0,7.92,3.55,7.92,7.92C262.18,193.46,258.64,197.01,254.26,197.01z
	 M254.26,164.34h-16.33c-4.38,0-7.92-3.55-7.92-7.92s3.54-7.92,7.92-7.92h16.33c4.38,0,7.92,3.55,7.92,7.92
	C262.18,160.79,258.64,164.34,254.26,164.34z M254.26,131.67h-16.33c-4.38,0-7.92-3.55-7.92-7.92c0-4.37,3.54-7.92,7.92-7.92h16.33
	c4.38,0,7.92,3.55,7.92,7.92C262.18,128.12,258.64,131.67,254.26,131.67z"/>
</svg>
