<?xml version="1.0" encoding="utf-8"?>
<!-- Generator: Adobe Illustrator 24.3.0, SVG Export Plug-In . SVG Version: 6.00 Build 0)  -->
<svg version="1.1" id="Capa_1" xmlns="http://www.w3.org/2000/svg" xmlns:xlink="http://www.w3.org/1999/xlink" x="0px" y="0px"
	 viewBox="0 0 512 512" style="enable-background:new 0 0 512 512;" xml:space="preserve">
<g>
	<g>
		<g>
			<path d="M467,61H45c-6.93,0-13.41,1.7-19.28,4.51L255,294.79l51.39-49.39c0,0,0-0.01,0.01-0.01s0.01,0,0.01,0L486.29,65.51
				C480.42,62.71,473.93,61,467,61z"/>
		</g>
	</g>
	<g>
		<g>
			<path d="M507.5,86.73L338.21,256l169.28,169.28c2.81-5.87,4.51-12.35,4.51-19.28V106C512,99.08,510.3,92.59,507.5,86.73z"/>
		</g>
	</g>
	<g>
		<g>
			<path d="M4.51,86.72C1.7,92.59,0,99.07,0,106v300c0,6.92,1.7,13.41,4.51,19.27L173.79,256L4.51,86.72z"/>
		</g>
	</g>
	<g>
		<g>
			<path d="M317,277.21l-51.4,49.39c-2.93,2.93-6.77,4.39-10.6,4.39s-7.68-1.46-10.6-4.39l-49.4-49.4L25.71,446.49
				C31.58,449.3,38.07,451,45,451h422c6.93,0,13.41-1.7,19.28-4.51L317,277.21z"/>
		</g>
	</g>
</g>
</svg>
