<?xml version="1.0" encoding="utf-8"?>
<!-- Generator: Adobe Illustrator 24.1.2, SVG Export Plug-In . SVG Version: 6.00 Build 0)  -->
<svg version="1.1" id="Layer_1" xmlns="http://www.w3.org/2000/svg" xmlns:xlink="http://www.w3.org/1999/xlink" x="0px" y="0px"
	 viewBox="0 0 45 45" style="enable-background:new 0 0 45 45;" xml:space="preserve">
<style type="text/css">
	.st0{fill:#03C8CE;}
</style>
<path class="st0" d="M22.48,0.27c-12.29,0-22.26,9.96-22.26,22.26c0,12.29,9.96,22.26,22.26,22.26c12.29,0,22.26-9.96,22.26-22.26
	C44.74,10.24,34.78,0.27,22.48,0.27z M36.88,15.29L18.9,33.26c-0.37,0.37-0.86,0.56-1.34,0.56c-0.48,0-0.97-0.19-1.34-0.56
	l-7.67-7.67l0,0c-0.37-0.37-0.56-0.86-0.55-1.34c0-0.48,0.19-0.97,0.56-1.34c0.37-0.37,0.86-0.56,1.34-0.56
	c0.48,0,0.97,0.19,1.34,0.56l0,0l6.33,6.33L34.19,12.6c0.37-0.37,0.86-0.56,1.34-0.56c0.48,0,0.97,0.19,1.34,0.55l0,0
	c0.37,0.37,0.56,0.86,0.56,1.34C37.43,14.43,37.25,14.92,36.88,15.29z"/>
</svg>
