<?xml version="1.0" encoding="utf-8"?>
<!-- Generator: Adobe Illustrator 24.1.2, SVG Export Plug-In . SVG Version: 6.00 Build 0)  -->
<svg version="1.1" id="Capa_1" xmlns="http://www.w3.org/2000/svg" xmlns:xlink="http://www.w3.org/1999/xlink" x="0px" y="0px"
	 viewBox="0 0 410.18 279.64" style="enable-background:new 0 0 410.18 279.64;" xml:space="preserve">
<g style="fill: #fff;">
	<polygon points="39.95,69.68 108.37,69.68 108.37,56.92 410.18,56.92 410.18,14.02 108.37,14.02 108.37,1.26 39.95,1.26 
		39.95,14.02 0,14.02 0,56.92 39.95,56.92 	"/>
	<polygon points="278.88,120.27 278.88,107.51 210.45,107.51 210.45,120.27 0,120.27 0,163.17 210.45,163.17 210.45,175.94 
		278.88,175.94 278.88,163.17 410.18,163.17 410.18,120.27 	"/>
	<polygon points="208.97,211.22 140.55,211.22 140.55,223.98 0,223.98 0,266.88 140.55,266.88 140.55,279.64 208.97,279.64 
		208.97,266.88 410.18,266.88 410.18,223.98 208.97,223.98 	"/>
</g>
</svg>
