<?xml version="1.0" encoding="utf-8"?>
<!-- Generator: Adobe Illustrator 24.1.2, SVG Export Plug-In . SVG Version: 6.00 Build 0)  -->
<svg version="1.1" id="Layer_1" xmlns="http://www.w3.org/2000/svg" xmlns:xlink="http://www.w3.org/1999/xlink" x="0px" y="0px"
	 viewBox="0 0 38 38" style="enable-background:new 0 0 38 38;" xml:space="preserve">
<g>
	<g>
		<g>
			<path d="M37.52,7.17c-0.22-0.27-0.55-0.42-0.9-0.42H9.01L7.99,2.92c-0.14-0.51-0.6-0.87-1.13-0.87H1.38
				c-0.65,0-1.17,0.53-1.17,1.17S0.73,4.4,1.38,4.4h4.57l1.01,3.79c0,0.01,0,0.03,0,0.04l3.76,14.05c0,0,0,0,0,0l1.27,4.74
				c0.14,0.51,0.6,0.87,1.13,0.87h18.8c0.65,0,1.17-0.53,1.17-1.17c0-0.65-0.53-1.17-1.17-1.17h-17.9l-0.66-2.47l20.96-1.06
				c0.54-0.03,1-0.43,1.1-0.96l2.35-12.92C37.84,7.79,37.75,7.44,37.52,7.17z M16.65,17.32c0,0.65-0.53,1.17-1.17,1.17
				s-1.17-0.53-1.17-1.17v-4.7c0-0.65,0.53-1.17,1.17-1.17s1.17,0.53,1.17,1.17V17.32z M23.7,17.32c0,0.65-0.53,1.17-1.17,1.17
				s-1.17-0.53-1.17-1.17v-4.7c0-0.65,0.53-1.17,1.17-1.17s1.17,0.53,1.17,1.17V17.32z M30.75,17.32c0,0.65-0.53,1.17-1.17,1.17
				s-1.17-0.53-1.17-1.17v-4.7c0-0.65,0.53-1.17,1.17-1.17s1.17,0.53,1.17,1.17V17.32z"/>
		</g>
	</g>
	<g>
		<g>
			<circle cx="15.48" cy="33.77" r="3.52"/>
		</g>
	</g>
	<g>
		<g>
			<circle cx="29.57" cy="33.77" r="3.52"/>
		</g>
	</g>
</g>
</svg>
