<?xml version="1.0" encoding="utf-8"?>
<!-- Generator: Adobe Illustrator 24.3.0, SVG Export Plug-In . SVG Version: 6.00 Build 0)  -->
<svg version="1.1" id="Layer_1" xmlns="http://www.w3.org/2000/svg" xmlns:xlink="http://www.w3.org/1999/xlink" x="0px" y="0px"
	 viewBox="0 0 512 512" style="enable-background:new 0 0 512 512;" xml:space="preserve">
<style type="text/css">
	.st0{fill:#0A9E5A;}
</style>
<path class="st0" d="M486.99,156.82l-31.06,31.06c7.1,21.41,10.96,44.31,10.96,68.12c0,119.38-96.61,216-216,216
	c-23.81,0-46.71-3.85-68.12-10.95c-50.39-16.71-92.52-51.45-118.76-96.6C45.5,332.58,34.89,295.54,34.89,256
	c0-2.69,0.07-5.36,0.16-8.02c1.35-36.93,11.93-71.47,29.53-101.39C102.11,82.79,171.45,40,250.89,40
	c45.99,0,88.6,14.35,123.61,38.81l28.66-28.66C360.62,18.64,307.96,0,250.89,0C145.13,0,54.44,63.99,15.39,155.41
	C8.86,170.69,3.77,186.74,0.3,203.39c-3.54,16.98-5.41,34.57-5.41,52.61c0,14.63,1.24,28.96,3.59,42.92
	c14.74,87.46,73.74,159.8,153.22,193.19c30.5,12.81,64,19.89,99.18,19.89c141.48,0,256-114.5,256-256
	C506.89,220.82,499.8,187.32,486.99,156.82z"/>
<path class="st0" d="M419.92,99.19L215.96,298.94l-55.57-56.75c-8.73-8.91-23.03-9.06-31.94-0.33c-8.91,8.73-9.06,23.03-0.33,31.94
	l71.37,72.89c8.73,8.91,23.03,9.06,31.94,0.33l220.1-215.54c8.91-8.73,9.06-23.03,0.33-31.94
	C443.14,90.62,428.84,90.47,419.92,99.19z"/>
</svg>
