<?xml version="1.0" encoding="utf-8"?>
<!-- Generator: Adobe Illustrator 24.3.0, SVG Export Plug-In . SVG Version: 6.00 Build 0)  -->
<svg version="1.1" id="Capa_1" xmlns="http://www.w3.org/2000/svg" xmlns:xlink="http://www.w3.org/1999/xlink" x="0px" y="0px"
	 viewBox="0 0 47 47" style="enable-background:new 0 0 47 47;" xml:space="preserve">
<g>
	<g id="Layer_1_64_">
		<g>
			<path d="M22.43,22.43c0,0.59,0.48,1.07,1.07,1.07s1.07-0.48,1.07-1.07c0-1.25,0.44-2.47,1.25-3.42c1.79-2.13,3.14-4.43,3.99-6.85
				c0.11-0.33,0.07-0.69-0.14-0.97c-0.2-0.28-0.52-0.45-0.87-0.45H18.2c-0.35,0-0.67,0.17-0.87,0.45c-0.2,0.28-0.25,0.65-0.14,0.97
				c0.85,2.42,2.19,4.73,3.99,6.85C21.99,19.96,22.43,21.18,22.43,22.43z"/>
			<path d="M24.57,26.71c0-0.59-0.48-1.07-1.07-1.07s-1.07,0.48-1.07,1.07c0,1.54-0.92,3.07-2.59,4.3
				c-3.57,2.64-6.25,5.51-7.95,8.52c-0.19,0.33-0.18,0.74,0.01,1.06c0.19,0.33,0.54,0.53,0.92,0.53h21.36c0.38,0,0.73-0.2,0.92-0.53
				c0.19-0.33,0.19-0.73,0.01-1.06c-1.7-3.01-4.38-5.88-7.95-8.52C25.49,29.78,24.57,28.25,24.57,26.71z"/>
			<path d="M42.19,42.73h-0.64c-0.73-8.31-5.6-14.69-9.39-19.23c3.78-4.53,8.65-10.91,9.39-19.23h0.64c1.18,0,2.14-0.96,2.14-2.14
				c0-1.18-0.96-2.14-2.14-2.14H4.81C3.63,0,2.67,0.96,2.67,2.14c0,1.18,0.96,2.14,2.14,2.14h0.64c0.74,8.31,5.6,14.7,9.39,19.23
				c-3.78,4.53-8.65,10.91-9.39,19.23H4.81c-1.18,0-2.14,0.96-2.14,2.13c0,1.18,0.96,2.14,2.14,2.14h2.67h32.04h2.67
				c1.18,0,2.14-0.96,2.14-2.14C44.33,43.68,43.37,42.73,42.19,42.73z M9.73,42.73c0.8-7.51,5.69-13.3,9.34-17.62l0.19-0.23
				c0.67-0.8,0.67-1.96,0-2.75l-0.19-0.23c-3.65-4.32-8.53-10.11-9.34-17.62h27.54c-0.8,7.51-5.69,13.3-9.34,17.62l-0.19,0.23
				c-0.67,0.8-0.67,1.96,0,2.76l0.19,0.23c3.65,4.32,8.53,10.11,9.33,17.62L9.73,42.73z"/>
		</g>
	</g>
</g>
</svg>
