<?xml version="1.0" encoding="utf-8"?>
<!-- Generator: Adobe Illustrator 24.1.2, SVG Export Plug-In . SVG Version: 6.00 Build 0)  -->
<svg version="1.1" id="Layer_1" xmlns="http://www.w3.org/2000/svg" xmlns:xlink="http://www.w3.org/1999/xlink" x="0px" y="0px"
	 viewBox="0 0 38 38" style="enable-background:new 0 0 38 38;" xml:space="preserve">
<g>
	<g>
		<path d="M19.1,2.41C28.25,2.41,35.7,9.85,35.7,19S28.25,35.59,19.1,35.59S2.51,28.15,2.51,19S9.95,2.41,19.1,2.41 M19.1,0.41
			C8.84,0.41,0.51,8.73,0.51,19S8.84,37.59,19.1,37.59S37.7,29.27,37.7,19S29.37,0.41,19.1,0.41L19.1,0.41z"/>
	</g>
	<path d="M32.65,31.71c0-0.02,0-0.03,0-0.05c0-0.43-0.13-0.78-0.41-1.09c-0.49-0.57-1.11-0.97-1.76-1.34
		c-1.29-0.74-2.7-1.21-4.06-1.77c-0.77-0.31-1.53-0.69-2.25-1.11c-1.37-0.8-1.94-2.05-1.87-3.61c0.02-0.38,0.13-0.71,0.39-0.98
		c0.68-0.69,1.06-1.53,1.22-2.47c0.06-0.35,0.23-0.6,0.58-0.74c0.42-0.17,0.63-0.53,0.69-0.95c0.07-0.44,0.14-0.89,0.1-1.33
		c-0.02-0.26-0.24-0.51-0.36-0.77c-0.04-0.09-0.1-0.2-0.09-0.3c0.09-0.7,0.22-1.4,0.3-2.11c0.21-1.96-0.59-3.45-2.2-4.51
		c-0.82-0.54-1.76-0.78-2.72-0.88c-0.12-0.01-0.23-0.04-0.34-0.06c-0.51,0-1.01,0-1.52,0c-0.46,0.08-0.93,0.13-1.38,0.24
		c-2,0.51-3.35,1.7-3.85,3.76c-0.18,0.75-0.05,1.49,0.05,2.23c0.07,0.45,0.15,0.9,0.21,1.36c0.01,0.07,0.01,0.17-0.03,0.21
		c-0.54,0.48-0.52,1.1-0.42,1.73c0.04,0.27,0.12,0.53,0.21,0.79c0.11,0.3,0.34,0.5,0.63,0.62c0.28,0.12,0.45,0.33,0.5,0.63
		c0.17,0.99,0.57,1.87,1.28,2.61c0.5,0.52,0.38,1.18,0.32,1.81c-0.12,1.2-0.78,2.07-1.77,2.72c-1.05,0.69-2.22,1.11-3.39,1.55
		c-1.42,0.53-2.82,1.13-4.05,2.05c-0.2,0.15-0.39,0.33-0.57,0.5c-0.35,0.35-0.52,0.76-0.53,1.27c3.39,3.61,8.2,5.88,13.54,5.88
		C24.45,37.59,29.26,35.32,32.65,31.71z"/>
</g>
</svg>
