<?xml version="1.0" encoding="utf-8"?>
<!-- Generator: Adobe Illustrator 24.1.2, SVG Export Plug-In . SVG Version: 6.00 Build 0)  -->
<svg version="1.1" id="Capa_1" xmlns="http://www.w3.org/2000/svg" xmlns:xlink="http://www.w3.org/1999/xlink" x="0px" y="0px"
	 viewBox="0 0 30.24 30.24" style="enable-background:new 0 0 30.24 30.24;" xml:space="preserve">
<g>
	<path d="M20.19,3.46c-4.61-4.61-12.12-4.61-16.73,0c-4.61,4.61-4.61,12.12,0,16.74c4.11,4.11,10.51,4.55,15.12,1.34
		c0.1,0.46,0.32,0.9,0.68,1.25l6.72,6.72c0.98,0.98,2.56,0.98,3.53,0c0.98-0.98,0.98-2.56,0-3.53l-6.72-6.72
		c-0.35-0.35-0.79-0.58-1.25-0.67C24.74,13.97,24.3,7.57,20.19,3.46z M18.07,18.07c-3.44,3.44-9.05,3.44-12.49,0
		c-3.44-3.44-3.44-9.05,0-12.49c3.44-3.44,9.05-3.44,12.49,0C21.52,9.03,21.52,14.63,18.07,18.07z"/>
</g>
</svg>
