<?xml version="1.0" encoding="utf-8"?>
<!-- Generator: Adobe Illustrator 24.3.0, SVG Export Plug-In . SVG Version: 6.00 Build 0)  -->
<svg version="1.1" id="Layer_1" xmlns="http://www.w3.org/2000/svg" xmlns:xlink="http://www.w3.org/1999/xlink" x="0px" y="0px"
	 viewBox="0 0 512 512" style="enable-background:new 0 0 512 512;" xml:space="preserve">
<style type="text/css">
	.st0{fill:#FFFFFF;}
</style>
<path class="st0" d="M215,492c0,11.05-8.95,20-20,20h-88c-44.11,0-80-35.89-80-80V80c0-44.11,35.89-80,80-80h245.89
	c44.11,0,80,35.89,80,80v191c0,11.05-8.96,20-20,20c-11.05,0-20-8.95-20-20V80c0-22.05-17.95-40-40-40H107c-22.05,0-40,17.95-40,40
	v352c0,22.05,17.95,40,40,40h88C206.05,472,215,480.95,215,492z M332.89,120h-206c-11.05,0-20,8.95-20,20s8.95,20,20,20h206
	c11.04,0,20-8.95,20-20S343.93,120,332.89,120z M352.89,220c0-11.05-8.96-20-20-20h-206c-11.05,0-20,8.95-20,20s8.95,20,20,20h206
	C343.93,240,352.89,231.05,352.89,220z M126.89,280c-11.05,0-20,8.95-20,20s8.95,20,20,20H232c11.05,0,20-8.95,20-20s-8.95-20-20-20
	H126.89z M482.36,426.5c-0.7,1-3.11,4.41-4.61,6.3c-6.7,8.43-22.38,28.15-44.2,45.56C405.59,500.68,376.8,512,348,512
	s-57.59-11.32-85.56-33.64c-21.82-17.41-37.5-37.14-44.19-45.56c-1.5-1.89-3.91-5.3-4.61-6.3c-4.85-6.9-4.85-16.1,0-23
	c0.7-1,3.11-4.41,4.61-6.3c6.7-8.42,22.38-28.14,44.19-45.55C290.41,329.32,319.2,318,348,318s57.59,11.32,85.56,33.64
	c21.82,17.41,37.5,37.14,44.19,45.56c1.5,1.89,3.91,5.3,4.61,6.3C487.21,410.4,487.21,419.6,482.36,426.5z M440.64,415
	c-31.8-37.83-62.94-57-92.64-57c-29.7,0-60.84,19.16-92.64,57c31.8,37.83,62.94,57,92.64,57S408.84,452.84,440.64,415z M349,377
	c-20.99,0-38,17.01-38,38s17.01,38,38,38s38-17.01,38-38S369.99,377,349,377z"/>
</svg>
