<?xml version="1.0" encoding="iso-8859-1"?>
<!-- Generator: Adobe Illustrator 19.0.0, SVG Export Plug-In . SVG Version: 6.00 Build 0)  -->
<svg version="1.1" id="Capa_1" xmlns="http://www.w3.org/2000/svg" xmlns:xlink="http://www.w3.org/1999/xlink" x="0px" y="0px"
	 viewBox="0 0 216.741 216.741" style="enable-background:new 0 0 216.741 216.741;" xml:space="preserve">
<path style="fill: #00b06b;" d="M216.741,73.097c0-3.674-0.744-7.157-2.215-10.279c-0.065-0.242-0.073-0.485-0.151-0.727l-14.902-46.437
	c-2.41-7.449-10.223-13.284-17.814-13.284H35.416c-7.592,0-15.427,5.835-17.838,13.294L2.66,62.083
	c-0.08,0.246-0.13,0.492-0.196,0.738C0.993,65.942,0,69.424,0,73.097c0,9.452,5.204,17.65,13.204,21.63v101.965
	c0,9.913,8.272,17.678,18.405,17.678h153.855c10.134,0,17.739-7.765,17.739-17.678V94.728
	C211.204,90.747,216.741,82.549,216.741,73.097z M145.204,184.371v-54c0-7.18-5.487-13-12.667-13h-47c-7.18,0-13.333,5.82-13.333,13
	v54h-29V87.834c1-0.891,1.478-1.831,2.037-2.814c4.165,7.322,12.118,12.274,21.127,12.274c9.009,0,16.92-4.952,21.085-12.274
	c4.165,7.322,12.055,12.274,21.064,12.274c9.009,0,16.889-4.953,21.054-12.275c4.165,7.322,12.039,12.275,21.049,12.275
	c9.009,0,16.714-4.953,20.879-12.275c0.559,0.983,1.706,1.923,1.706,2.814v96.537H145.204z"/>
<g>
</g>
<g>
</g>
<g>
</g>
<g>
</g>
<g>
</g>
<g>
</g>
<g>
</g>
<g>
</g>
<g>
</g>
<g>
</g>
<g>
</g>
<g>
</g>
<g>
</g>
<g>
</g>
<g>
</g>
</svg>
