<?xml version="1.0" encoding="utf-8"?>
<!-- Generator: Adobe Illustrator 24.3.0, SVG Export Plug-In . SVG Version: 6.00 Build 0)  -->
<svg version="1.1" id="Layer_1" xmlns="http://www.w3.org/2000/svg" xmlns:xlink="http://www.w3.org/1999/xlink" x="0px" y="0px"
	 viewBox="0 0 512 512" style="enable-background:new 0 0 512 512;" xml:space="preserve">
<style type="text/css">
	.st0{fill:#a1a1a1;}
</style>
<path class="st0" d="M256,0C114.52,0,0,114.5,0,256c0,141.48,114.5,256,256,256c141.48,0,256-114.5,256-256
	C512,114.52,397.5,0,256,0z M256,472c-119.38,0-216-96.61-216-216c0-119.38,96.61-216,216-216c119.38,0,216,96.61,216,216
	C472,375.38,375.39,472,256,472z"/>
<path class="st0" d="M350.88,236l-20,0L256,236l-74.88,0l-20,0c-11.05,0-20,8.96-20,20v0c0,0.22,0.03,0.42,0.03,0.64
	c0.26,8.11,5.32,15,12.45,17.89c2.32,0.94,4.85,1.47,7.51,1.47l94.88,0l94.88,0c2.66,0,5.19-0.53,7.51-1.47
	c7.13-2.89,12.2-9.78,12.45-17.89c0.01-0.21,0.03-0.42,0.03-0.64v0C370.88,244.96,361.92,236,350.88,236z"/>
</svg>
