<?xml version="1.0" encoding="utf-8"?>
<!-- Generator: Adobe Illustrator 24.3.0, SVG Export Plug-In . SVG Version: 6.00 Build 0)  -->
<svg version="1.1" id="Capa_1" xmlns="http://www.w3.org/2000/svg" xmlns:xlink="http://www.w3.org/1999/xlink" x="0px" y="0px"
	 viewBox="0 0 557.2 521.9" style="enable-background:new 0 0 557.2 521.9;" xml:space="preserve">
<style type="text/css">
	.st0{fill:#FFFFFF;}
</style>
<path class="st0" d="M381,257c0-68.9-56.1-125-125-125s-125,56.1-125,125s56.1,125,125,125S381,325.9,381,257z M256,342
	c-46.9,0-85-38.1-85-85s38.1-85,85-85s85,38.1,85,85S302.9,342,256,342z"/>
<path class="st0" d="M60,422c-11,0-20-9-20-20V132c0-11,9-20,20-20h75c17.6,0,33.5-9.8,41.3-25.6c0.1-0.1,0.1-0.2,0.2-0.3l20.4-42.8
	c1.1-2,3.2-3.3,5.5-3.3H311c2.3,0,4.4,1.3,5.5,3.3l20.4,42.8c0.1,0.1,0.1,0.2,0.2,0.3c7.9,15.8,23.7,25.6,41.3,25.6H452
	c11,0,20,9,20,20v129h40V132c0-33.1-26.9-60-60-60h-73.6c-2.3,0-4.4-1.3-5.5-3.3l-20.3-42.8c-0.1-0.1-0.1-0.2-0.2-0.4
	C344.5,9.8,328.7,0,311,0H202.4c-17.6,0-33.5,9.8-41.3,25.5c-0.1,0.1-0.1,0.2-0.2,0.4l-20.4,42.8c-1.1,2.1-3.2,3.3-5.5,3.3H60
	C26.9,72,0,98.9,0,132v270c0,33.1,26.9,60,60,60h241.6v-40H60z"/>
<rect x="392" y="152" class="st0" width="40" height="40"/>
<path class="st0" d="M532.9,386.6H463v-69.9c0-11-9-20-20-20s-20,9-20,20v69.9H353c-11,0-20,9-20,20l0,0c0,11,9,20,20,20H423v69.9
	c0,11,9,20,20,20s20-9,20-20v-69.9h69.9c11,0,20-9,20-20l0,0C552.9,395.6,543.9,386.6,532.9,386.6z"/>
</svg>
