<?xml version="1.0" encoding="utf-8"?>
<!-- Generator: Adobe Illustrator 24.3.0, SVG Export Plug-In . SVG Version: 6.00 Build 0)  -->
<svg version="1.1" id="Layer_1" xmlns="http://www.w3.org/2000/svg" xmlns:xlink="http://www.w3.org/1999/xlink" x="0px" y="0px"
	 viewBox="0 0 512 512" style="enable-background:new 0 0 512 512;" xml:space="preserve">
<style type="text/css">
	.st0{fill:#FFFFFF;}
</style>
<path class="st0" d="M403.78,57.87h-54.83V55c0-30.33-24.67-55-55-55h-76.12c-30.33,0-55,24.67-55,55v2.87H108
	c-16.57,0-30,13.43-30,30v22.87c0,5.52,4.48,10,10,10h335.78c5.52,0,10-4.48,10-10V87.87C433.78,71.3,420.35,57.87,403.78,57.87z
	 M192.83,55c0-13.79,11.21-25,25-25h76.12c13.79,0,25,11.21,25,25v2.87H192.83V55z"/>
<path class="st0" d="M90.95,150.74l24.24,347.3c0.55,7.86,7.09,13.96,14.96,13.96h251.48c7.88,0,14.41-6.1,14.96-13.96l24.23-347.3
	H90.95z M196.53,460.98c-0.21,0.01-0.43,0.02-0.65,0.02c-7.99,0-14.63-6.3-14.97-14.36l-10-235c-0.36-8.28,6.07-15.27,14.35-15.62
	c8.28-0.34,15.27,6.07,15.62,14.35l10,235C211.23,453.64,204.8,460.63,196.53,460.98z M270.89,446c0,8.29-6.71,15-15,15
	s-15-6.71-15-15V211c0-8.29,6.71-15,15-15s15,6.71,15,15V446z M330.88,446.64c-0.34,8.06-6.99,14.36-14.98,14.36
	c-0.21,0-0.43,0-0.65-0.01c-8.28-0.35-14.7-7.35-14.35-15.62l10-235c0.36-8.28,7.36-14.7,15.62-14.35
	c8.28,0.35,14.7,7.34,14.35,15.62L330.88,446.64z"/>
</svg>
