<?xml version="1.0" encoding="utf-8"?>
<!-- Generator: Adobe Illustrator 24.3.0, SVG Export Plug-In . SVG Version: 6.00 Build 0)  -->
<svg version="1.1" id="Capa_1" xmlns="http://www.w3.org/2000/svg" xmlns:xlink="http://www.w3.org/1999/xlink" x="0px" y="0px"
	 viewBox="0 0 512 512" style="enable-background:new 0 0 512 512;" xml:space="preserve">
<style type="text/css">
	.st0{fill:#FFFFFF;}
</style>
<g>
	<g>
		<g>
			<path class="st0" d="M352.46,220c0-11.05-8.95-20-20-20h-206c-11.05,0-20,8.95-20,20s8.95,20,20,20h206
				C343.51,240,352.46,231.05,352.46,220z"/>
			<path class="st0" d="M126.46,280c-11.05,0-20,8.95-20,20s8.95,20,20,20h125.11c11.05,0,20-8.95,20-20s-8.95-20-20-20H126.46z"/>
			<path class="st0" d="M173.46,472h-66.89c-22.06,0-40-17.94-40-40V80c0-22.06,17.94-40,40-40h245.89c22.06,0,40,17.94,40,40v123
				c0,11.05,8.95,20,20,20s20-8.95,20-20V80c0-44.11-35.89-80-80-80H106.57c-44.11,0-80,35.89-80,80v352c0,44.11,35.89,80,80,80
				h66.89c11.05,0,20-8.95,20-20S184.51,472,173.46,472z"/>
			<path class="st0" d="M467.88,289.57c-23.39-23.39-61.46-23.39-84.84-0.02l-109.8,109.56c-2.33,2.33-4.05,5.19-5.01,8.35
				l-23.91,78.73c-2.12,6.98-0.27,14.56,4.82,19.78c3.82,3.91,9,6.03,14.32,6.03c1.78,0,3.58-0.24,5.34-0.73l80.73-22.36
				c3.32-0.92,6.35-2.68,8.79-5.12l109.57-109.37C491.28,351.03,491.28,312.97,467.88,289.57z M333.78,451.77l-40.61,11.25
				l11.89-39.13l74.09-73.93l28.29,28.29L333.78,451.77z M439.61,346.13l-3.88,3.87l-28.29-28.29l3.86-3.85
				c7.8-7.8,20.49-7.8,28.28,0S447.4,338.34,439.61,346.13z"/>
			<path class="st0" d="M332.46,120h-206c-11.05,0-20,8.95-20,20s8.95,20,20,20h206c11.05,0,20-8.95,20-20S343.51,120,332.46,120z"
				/>
		</g>
	</g>
</g>
</svg>
