<?xml version="1.0" encoding="utf-8"?>
<!-- Generator: Adobe Illustrator 24.3.0, SVG Export Plug-In . SVG Version: 6.00 Build 0)  -->
<svg version="1.1" id="Layer_1" xmlns="http://www.w3.org/2000/svg" xmlns:xlink="http://www.w3.org/1999/xlink" x="0px" y="0px"
	 viewBox="0 0 512 512" style="enable-background:new 0 0 512 512;" xml:space="preserve">
<style type="text/css">
	.st0{fill:#00B16B;}
</style>
<g id="surface1">
	<path class="st0" d="M406,197.01V150C406,67.29,338.71,0,256,0S106,67.29,106,150v47.01c-22.8,4.64-40,24.85-40,48.99v56.77
		c0,5.52,4.48,10,10,10s10-4.48,10-10V246c0-16.54,13.46-30,30-30h280c16.54,0,30,13.46,30,30v216c0,13.04-8.36,24.15-20,28.28V430
		c0-5.52-4.48-10-10-10s-10,4.48-10,10v62H116c-16.54,0-30-13.46-30-30v-79c0-5.52-4.48-10-10-10s-10,4.48-10,10v79
		c0,27.57,22.43,50,50,50h280c27.57,0,50-22.43,50-50V246C446,221.86,428.8,201.65,406,197.01z M180,196v-46c0-41.91,34.09-76,76-76
		s76,34.09,76,76v46H180z M352,196v-46c0-52.93-43.07-96-96-96s-96,43.07-96,96v46h-34v-46c0-71.68,58.32-130,130-130
		s130,58.32,130,130v46H352z"/>
	<path class="st0" d="M76,352.49c2.63,0,5.21-1.07,7.07-2.93c1.86-1.86,2.93-4.44,2.93-7.07c0-2.63-1.07-5.21-2.93-7.07
		c-1.86-1.86-4.44-2.93-7.07-2.93s-5.21,1.07-7.07,2.93c-1.86,1.86-2.93,4.44-2.93,7.07c0,2.63,1.07,5.21,2.93,7.07
		C70.79,351.42,73.37,352.49,76,352.49z"/>
	<path class="st0" d="M256,458c16.54,0,30-13.46,30-30v-53.1c15.02-9.95,24.13-26.66,24.13-44.98c0-29.77-24.23-54-54-54
		c-29.78,0-54,24.23-54,54c0,18.19,9,34.84,23.87,44.81V428C226,444.54,239.46,458,256,458z M222.13,329.91c0-18.75,15.25-34,34-34
		c18.75,0,34,15.25,34,34c0,12.88-7.15,24.5-18.65,30.34c-3.36,1.7-5.48,5.15-5.48,8.92V428c0,5.52-4.48,10-10,10s-10-4.48-10-10
		v-58.96c0-3.74-2.09-7.17-5.42-8.89C229.2,354.28,222.13,342.7,222.13,329.91z"/>
	<path class="st0" d="M396,399c2.64,0,5.21-1.07,7.07-2.93S406,391.64,406,389s-1.07-5.21-2.93-7.07S398.64,379,396,379
		c-2.63,0-5.21,1.07-7.07,2.93S386,386.37,386,389s1.07,5.21,2.93,7.07S393.37,399,396,399z"/>
</g>
</svg>
