<?xml version="1.0" encoding="utf-8"?>
<!-- Generator: Adobe Illustrator 24.3.0, SVG Export Plug-In . SVG Version: 6.00 Build 0)  -->
<svg version="1.1" id="Layer_1" xmlns="http://www.w3.org/2000/svg" xmlns:xlink="http://www.w3.org/1999/xlink" x="0px" y="0px"
	 viewBox="0 0 512 512" style="enable-background:new 0 0 512 512;" xml:space="preserve">
<style type="text/css">
	.st0{fill:#00B16B;}
</style>
<path class="st0" d="M512,256C512,114.51,397.5,0,256,0C114.51,0,0,114.5,0,256c0,140.23,113.54,256,256,256
	C397.88,512,512,396.88,512,256z M256,30c124.62,0,226,101.38,226,226c0,45.59-13.56,89.4-38.7,126.52
	c-100.97-108.61-273.44-108.8-374.59,0C43.56,345.4,30,301.59,30,256C30,131.38,131.38,30,256,30z M87.41,406.5
	c89.77-100.7,247.42-100.67,337.17,0C334.51,507.27,177.53,507.3,87.41,406.5z"/>
<path class="st0" d="M256,271c49.62,0,90-40.38,90-90v-30c0-49.62-40.38-90-90-90s-90,40.38-90,90v30C166,230.62,206.38,271,256,271
	z M196,151c0-33.09,26.91-60,60-60s60,26.91,60,60v30c0,33.09-26.91,60-60,60s-60-26.91-60-60V151z"/>
</svg>
