<?xml version="1.0" encoding="utf-8"?>
<!-- Generator: Adobe Illustrator 24.3.0, SVG Export Plug-In . SVG Version: 6.00 Build 0)  -->
<svg version="1.1" id="Capa_1" xmlns="http://www.w3.org/2000/svg" xmlns:xlink="http://www.w3.org/1999/xlink" x="0px" y="0px"
	 viewBox="0 0 457.6 522.2" style="enable-background:new 0 0 457.6 522.2;" xml:space="preserve">
<style type="text/css">
	.st0{fill:#FFFFFF;}
	.st1{fill:#FFFFFF;stroke:#FFFFFF;stroke-width:11;stroke-miterlimit:10;}
</style>
<g>
	<path class="st0" d="M306.1,202.1H176.9c-9.4,0-17,7.6-17,17s7.6,17,17,17h129.2c9.4,0,17-7.6,17-17S315.5,202.1,306.1,202.1z"/>
	<path class="st0" d="M215.2,299.1c0-9.4-7.6-17-17-17h-21.3c-9.4,0-17,7.6-17,17s7.6,17,17,17h21.3
		C207.6,316.1,215.2,308.5,215.2,299.1z"/>
	<path class="st0" d="M193.1,474.1H79.2c-23.7,0-43-19.3-43-43v-352c0-23.7,19.3-43,43-43h245.9c23.7,0,43,19.3,43,43v163
		c0,9.4,7.6,17,17,17s17-7.6,17-17v-163c0-42.5-34.5-77-77-77H79.2c-42.5,0-77,34.5-77,77v352c0,42.5,34.5,77,77,77h113.9
		c9.4,0,17-7.6,17-17S202.5,474.1,193.1,474.1z"/>
	<path class="st0" d="M306.1,122.2H176.9c-9.4,0-17,7.6-17,17s7.6,17,17,17h129.2c9.4,0,17-7.6,17-17S315.5,122.2,306.1,122.2z"/>
	<path class="st1" d="M95.1,166.4L95.1,166.4c2.3,0,4.5-1.1,5.9-2.9l29.1-37.2c2.6-3.3,2-8-1.3-10.5c-3.3-2.6-8-2-10.5,1.3L95,146.8
		l-6.2-7.6c-2.6-3.2-7.3-3.7-10.5-1.1c-3.2,2.6-3.7,7.3-1.1,10.5l12.1,14.9C90.7,165.4,92.8,166.4,95.1,166.4z"/>
	<path class="st1" d="M77.2,227.7l12.1,14.9c1.4,1.8,3.6,2.8,5.8,2.8h0.1c2.3,0,4.4-1.1,5.8-2.9l29.1-37.2c2.6-3.3,2-8-1.3-10.5
		c-3.3-2.6-8-2-10.5,1.3L95,225.8l-6.2-7.6c-2.6-3.2-7.3-3.7-10.5-1.1C75.1,219.8,74.6,224.5,77.2,227.7z"/>
	<path class="st1" d="M77.2,306.7l12.1,14.9c1.4,1.8,3.6,2.8,5.8,2.8h0.1c2.3,0,4.4-1.1,5.8-2.9l29.1-37.2c2.6-3.3,2-8-1.3-10.5
		c-3.3-2.5-8-2-10.5,1.3L95,304.8l-6.2-7.6c-2.6-3.2-7.3-3.7-10.5-1.1C75.1,298.8,74.6,303.5,77.2,306.7z"/>
	<g>
		<g>
			<g>
				<g>
					<path class="st0" d="M331.9,515.5c-31.4,0-60.8-12.1-82.8-34.1c-3.8-3.8-3.8-9.9,0-13.7c1.8-1.8,4.3-2.8,6.9-2.8
						c2.6,0,5,1,6.9,2.8c18.4,18.4,43,28.6,69.1,28.6s50.7-10.1,69.1-28.6c38.1-38.1,38.1-100.1,0-138.2
						c-18.4-18.4-43-28.6-69.1-28.6s-50.7,10.1-69.1,28.6c-16.6,16.5-26.5,39.2-27.9,63l10.6-10.6c1.8-1.8,4.3-2.8,6.9-2.8
						s5,1,6.9,2.8c1.8,1.8,2.8,4.3,2.8,6.9c0,2.6-1,5-2.8,6.8l-26.6,26.6c-1.8,1.8-4.3,2.8-6.9,2.8c-2.6,0-5-1-6.8-2.8l-26-26
						c-3.8-3.8-3.8-9.9,0-13.7c1.8-1.8,4.2-2.8,6.8-2.8c2.6,0,5,1,6.9,2.9l8.9,8.9c1.6-28.8,13.4-55.4,33.6-75.6
						c22-22,51.4-34.1,82.8-34.1s60.8,12.1,82.8,34.1c45.6,45.6,45.6,119.9,0,165.6C392.6,503.4,363.2,515.5,331.9,515.5
						L331.9,515.5z"/>
					<path class="st0" d="M331.9,284.6c29.2,0,58.5,11.1,80.7,33.3c44.4,44.4,44.4,117,0,161.3c-22.2,22.2-51.4,33.3-80.7,33.3
						c-29.2,0-58.5-11.1-80.7-33.3c-2.6-2.6-2.6-6.8,0-9.5c1.3-1.3,3-2,4.7-2s3.4,0.6,4.7,2c19.6,19.6,45.4,29.5,71.2,29.5
						s51.6-9.8,71.2-29.5c39.3-39.3,39.3-103.2,0-142.4c-19.6-19.6-45.4-29.5-71.2-29.5s-51.6,9.8-71.2,29.5
						c-19,19-29.4,45.4-29,72.5l15.9-15.9c1.3-1.3,3-2,4.7-2c1.7,0,3.4,0.6,4.7,2c2.6,2.6,2.6,6.8,0,9.5L230.4,420
						c-1.3,1.3-3,2-4.7,2c-1.7,0-3.4-0.6-4.7-2l-26-26c-2.6-2.6-2.6-6.8,0-9.5c1.3-1.3,3-1.9,4.7-1.9c1.7,0,3.4,0.7,4.7,2l13.8,13.8
						c0-30.5,11.9-59.5,33-80.6C273.4,295.7,302.6,284.6,331.9,284.6 M331.9,278.6c-32.2,0-62.3,12.4-84.9,35
						c-11.1,11.1-19.7,24.1-25.7,38.7c-4.3,10.4-7,21.2-8.3,32.4l-4.3-4.3c-2.4-2.4-5.6-3.7-9-3.7c-3.4,0-6.5,1.3-8.9,3.7
						c-4.9,5-4.9,13,0,17.9l26,26c2.4,2.4,5.6,3.7,9,3.7c3.4,0,6.6-1.3,9-3.7l26.6-26.6c5-5,5-13,0-17.9c-2.4-2.4-5.6-3.7-9-3.7
						s-6.6,1.3-9,3.7l-4.6,4.6c2.9-20,12.1-38.6,26.2-52.7c17.9-17.9,41.6-27.7,67-27.7c25.3,0,49.1,9.8,67,27.7
						c36.9,36.9,36.9,97,0,133.9c-17.9,17.9-41.6,27.7-67,27.7c-25.3,0-49.1-9.8-67-27.7c-2.4-2.4-5.6-3.7-9-3.7
						c-3.4,0-6.6,1.3-9,3.7c-4.9,5-4.9,13,0,17.9c22.6,22.6,52.7,35,84.9,35s62.3-12.4,84.9-35c22.6-22.6,35-52.8,35-84.9
						c0-32.2-12.4-62.3-35-84.9C394.2,291.1,364,278.6,331.9,278.6L331.9,278.6z"/>
				</g>
			</g>
		</g>
		<g>
			<g>
				<g>
					<path class="st0" d="M363.2,451.8c-2.9,0-5.5-1.1-7.6-3.1l-34.3-34.3c-2-2-3.1-4.7-3.1-7.6V342c0-5.9,4.8-10.7,10.7-10.7
						s10.7,4.8,10.7,10.7v60.3l31.2,31.2c2,2,3.1,4.7,3.1,7.6c0,2.9-1.1,5.5-3.1,7.6S366.1,451.8,363.2,451.8z"/>
					<path class="st0" d="M328.9,334.4c4.3,0,7.7,3.5,7.7,7.7v61.5l32.1,32.1c3,3,3,7.9,0,10.9c-1.5,1.5-3.5,2.3-5.5,2.3
						s-4-0.8-5.5-2.3l-34.3-34.3c-1.5-1.5-2.3-3.4-2.3-5.5v-64.7C321.2,337.8,324.6,334.4,328.9,334.4 M328.9,328.4
						c-7.6,0-13.7,6.1-13.7,13.7v64.7c0,3.7,1.4,7.1,4,9.7l34.3,34.3c2.6,2.6,6,4,9.7,4s7.1-1.4,9.7-4c5.3-5.3,5.3-14,0-19.4
						l-30.3-30.3v-59.1C342.6,334.5,336.5,328.4,328.9,328.4L328.9,328.4z"/>
				</g>
			</g>
		</g>
	</g>
</g>
</svg>
