<?xml version="1.0" encoding="utf-8"?>
<!-- Generator: Adobe Illustrator 24.3.0, SVG Export Plug-In . SVG Version: 6.00 Build 0)  -->
<svg version="1.1" id="Capa_1" xmlns="http://www.w3.org/2000/svg" xmlns:xlink="http://www.w3.org/1999/xlink" x="0px" y="0px"
	 viewBox="0 0 512 512" style="enable-background:new 0 0 512 512;" xml:space="preserve">
<g>
	<g>
		<path d="M414.5,188.52h-32.23l9.71-111.51c0.02-0.2,0.02-0.4,0.02-0.6c0-0.02,0-0.03,0-0.05c0,0,0,0,0-0.01
			c0-3.04-1.83-5.71-4.52-6.87c-0.02-0.01-0.05-0.02-0.07-0.03c-0.17-0.07-0.34-0.13-0.51-0.19c-0.07-0.02-0.13-0.05-0.19-0.07
			c-0.14-0.04-0.29-0.08-0.43-0.11c-0.1-0.02-0.2-0.05-0.3-0.07c-0.13-0.03-0.26-0.04-0.39-0.06c-0.12-0.02-0.24-0.04-0.36-0.05
			c-0.02,0-0.04-0.01-0.06-0.01c-0.13-0.01-0.26-0.01-0.39-0.01c-0.09,0-0.17-0.01-0.26-0.01h-0.09c-0.01,0-0.02,0-0.02,0H231.01
			c-4.14,0-7.5,3.36-7.5,7.5c0,4.13,3.36,7.5,7.5,7.5h145.31L361.4,255.24c0,0.01,0,0.03,0,0.04l-3.77,43.24H97.02l4.36-45H151
			c4.14,0,7.5-3.36,7.5-7.5s-3.36-7.5-7.5-7.5h-48.17l9.2-95h78.98c4.14,0,7.5-3.36,7.5-7.5s-3.36-7.5-7.5-7.5h-77.52l4.33-44.66
			h83.19c4.13,0,7.5-3.37,7.5-7.5c0-4.14-3.37-7.5-7.5-7.5h-90c0,0-0.01,0-0.01,0c-3.52,0-6.58,2.48-7.32,5.92
			c0,0.03-0.01,0.05-0.02,0.07c-0.04,0.19-0.06,0.38-0.09,0.57c-0.01,0.06-0.02,0.12-0.03,0.18c0,0.01,0,0.02,0,0.04l-5.12,52.89
			H7.5c-4.14,0-7.5,3.36-7.5,7.5s3.36,7.5,7.5,7.5h89.46l-9.2,94.99H61c-4.14,0-7.5,3.36-7.5,7.5s3.36,7.5,7.5,7.5h25.31
			l-5.01,51.72c0,0.01,0,0.02,0,0.02l-7.75,79.98c0,0.01,0,0.02,0,0.03l0,0.03c-0.01,0.1-0.01,0.21-0.01,0.31
			c-0.01,0.14-0.02,0.27-0.02,0.41c0,0.01,0,0.01,0,0.02c0,0.19,0.01,0.38,0.03,0.57c0.01,0.06,0,0.12,0.01,0.18
			c0.02,0.19,0.05,0.39,0.09,0.58c0.01,0.06,0.01,0.11,0.03,0.17c0.03,0.14,0.07,0.28,0.11,0.42c0.03,0.1,0.05,0.2,0.08,0.3
			c0.01,0.03,0.02,0.05,0.03,0.08c0.36,1.12,0.98,2.12,1.78,2.94c0.01,0.02,0.03,0.03,0.04,0.05c0.08,0.08,0.17,0.15,0.25,0.23
			c0.52,0.47,1.1,0.88,1.74,1.19c0.13,0.07,0.26,0.14,0.4,0.19c0.04,0.02,0.08,0.03,0.13,0.05c0.19,0.08,0.38,0.15,0.57,0.21
			c0.02,0.01,0.04,0.01,0.05,0.01c0.22,0.07,0.45,0.12,0.68,0.17c0.03,0.01,0.06,0.01,0.09,0.01c0.22,0.04,0.44,0.08,0.66,0.1
			c0,0,0.01,0,0.01,0c0.25,0.02,0.49,0.04,0.73,0.04c0,0,0.01,0,0.01,0h33.39c3.69,27.95,27.65,49.6,56.6,49.6
			c28.94,0,52.91-21.65,56.6-49.6h120.3c3.69,27.95,27.65,49.6,56.6,49.6c28.94,0,52.91-21.65,56.6-49.6h33.4c0.01,0,0.01,0,0.02,0
			c0.25,0,0.5-0.02,0.74-0.04c0.04,0,0.09-0.01,0.13-0.02c0.2-0.02,0.39-0.05,0.58-0.09c0.08-0.02,0.16-0.04,0.24-0.06
			c0.15-0.03,0.3-0.07,0.44-0.11c0.1-0.03,0.19-0.06,0.29-0.1c0.12-0.04,0.25-0.09,0.37-0.14c0.1-0.04,0.2-0.09,0.3-0.13
			c0.11-0.05,0.22-0.1,0.33-0.16c0.1-0.05,0.2-0.11,0.3-0.16c0.1-0.06,0.2-0.12,0.31-0.19c0.09-0.06,0.19-0.12,0.28-0.18
			c0.1-0.07,0.2-0.15,0.3-0.22c0.08-0.07,0.17-0.13,0.24-0.2c0.1-0.09,0.2-0.18,0.3-0.27c0.07-0.07,0.14-0.13,0.2-0.2
			c0.1-0.11,0.2-0.22,0.3-0.33c0.05-0.06,0.11-0.12,0.16-0.18c0.11-0.14,0.21-0.28,0.31-0.42c0.03-0.05,0.07-0.1,0.11-0.14
			c0.12-0.18,0.24-0.37,0.34-0.57c0.01-0.01,0.02-0.02,0.02-0.04c0.11-0.21,0.22-0.42,0.31-0.64c0.03-0.06,0.05-0.13,0.07-0.19
			c0.06-0.15,0.12-0.31,0.17-0.47c0.03-0.1,0.06-0.21,0.09-0.32c0.03-0.12,0.07-0.25,0.1-0.38c0.02-0.11,0.04-0.23,0.06-0.34
			c0.02-0.1,0.04-0.2,0.05-0.3c0.32-2.55,6.19-49.67,8.81-80.14c0-0.03,0-0.06,0.01-0.09c0.76-8.78,1.24-16.18,1.24-20.71
			C512,232.26,468.26,188.52,414.5,188.52z M380.96,203.53h30.68l-3.92,45h-30.68L380.96,203.53z M171.01,428.13
			c-23.22,0-42.1-18.89-42.1-42.1s18.89-42.1,42.1-42.1s42.1,18.89,42.1,42.1S194.22,428.13,171.01,428.13z M404.5,428.13
			c-23.22,0-42.1-18.89-42.1-42.1s18.89-42.1,42.1-42.1c23.22,0,42.11,18.89,42.11,42.1S427.71,428.13,404.5,428.13z M487.86,378.52
			H461.1c-3.69-27.95-27.65-49.61-56.6-49.61c-28.94,0-52.91,21.65-56.6,49.61H227.6c-3.69-27.95-27.65-49.61-56.6-49.61
			s-52.91,21.65-56.6,49.61H89.27l6.3-65H364.5v0c0,0,0.01,0,0.01,0c0.25,0,0.5-0.01,0.75-0.04c0.05,0,0.09-0.01,0.14-0.02
			c0.2-0.02,0.39-0.05,0.58-0.09c0.08-0.02,0.16-0.04,0.25-0.06c0.15-0.04,0.3-0.07,0.45-0.11c0.1-0.03,0.2-0.07,0.29-0.1
			c0.13-0.04,0.25-0.09,0.37-0.14c0.11-0.04,0.21-0.09,0.31-0.14c0.11-0.05,0.22-0.1,0.33-0.16c0.1-0.05,0.2-0.11,0.3-0.17
			c0.1-0.06,0.2-0.12,0.3-0.18c0.1-0.06,0.19-0.13,0.28-0.2c0.1-0.07,0.2-0.14,0.29-0.22c0.09-0.07,0.17-0.14,0.26-0.21
			c0.1-0.08,0.19-0.17,0.28-0.25c0.08-0.07,0.15-0.15,0.23-0.23c0.09-0.09,0.18-0.19,0.26-0.29c0.07-0.08,0.13-0.16,0.2-0.24
			c0.08-0.11,0.16-0.21,0.24-0.32c0.06-0.08,0.12-0.16,0.17-0.25c0.07-0.11,0.14-0.23,0.21-0.35c0.05-0.09,0.1-0.18,0.15-0.27
			c0.06-0.12,0.12-0.24,0.17-0.36c0.04-0.1,0.09-0.19,0.13-0.29c0.05-0.12,0.09-0.24,0.13-0.36c0.04-0.11,0.08-0.21,0.11-0.32
			c0.03-0.12,0.06-0.23,0.09-0.35c0.03-0.12,0.06-0.24,0.08-0.36c0.02-0.12,0.04-0.24,0.05-0.36c0.02-0.12,0.04-0.25,0.05-0.37
			c0-0.02,0.01-0.04,0.01-0.05l3.76-43.15h38.76c22.98,0,33.34,11.91,44.31,24.51c9.05,10.4,19.16,22.01,36.34,24.84
			C492.97,335.94,489.44,365.55,487.86,378.52z M496.43,297.84c-11.14-2.27-18-10.11-26.31-19.65
			c-10.39-11.93-23.07-26.5-47.39-29.21l3.88-44.55c39.76,5.88,70.38,40.23,70.38,81.6C497,288.84,496.79,292.92,496.43,297.84z"/>
	</g>
</g>
<g>
	<g>
		<path d="M171.01,358.52c-15.16,0-27.5,12.34-27.5,27.5s12.34,27.5,27.5,27.5s27.5-12.34,27.5-27.5
			C198.51,370.86,186.17,358.52,171.01,358.52z M171.01,398.52c-6.89,0-12.5-5.61-12.5-12.5s5.61-12.5,12.5-12.5
			s12.5,5.61,12.5,12.5S177.9,398.52,171.01,398.52z"/>
	</g>
</g>
<g>
	<g>
		<path d="M404.5,358.52c-15.16,0-27.5,12.34-27.5,27.5s12.34,27.5,27.5,27.5s27.5-12.34,27.5-27.5
			C432,370.86,419.66,358.52,404.5,358.52z M404.5,398.52c-6.89,0-12.5-5.61-12.5-12.5s5.61-12.5,12.5-12.5s12.5,5.61,12.5,12.5
			S411.39,398.52,404.5,398.52z"/>
	</g>
</g>
<g>
	<g>
		<path d="M71,188.53H34.33c-4.14,0-7.5,3.36-7.5,7.5s3.36,7.5,7.5,7.5H71c4.14,0,7.5-3.36,7.5-7.5S75.14,188.53,71,188.53z"/>
	</g>
</g>
</svg>
