<?xml version="1.0" encoding="utf-8"?>
<!-- Generator: Adobe Illustrator 24.3.0, SVG Export Plug-In . SVG Version: 6.00 Build 0)  -->
<svg version="1.1" id="Capa_1" xmlns="http://www.w3.org/2000/svg" xmlns:xlink="http://www.w3.org/1999/xlink" x="0px" y="0px"
	 viewBox="0 0 512 512" style="enable-background:new 0 0 512 512;" xml:space="preserve">
<g>
	<g>
		<path d="M491.73,112.97L259.26,0.75c-2.06-0.99-4.46-0.99-6.52,0L20.27,112.97c-2.59,1.25-4.24,3.88-4.24,6.75v272.55
			c0,2.88,1.65,5.5,4.24,6.75l232.47,112.23c1.03,0.5,2.15,0.75,3.26,0.75c1.11,0,2.23-0.25,3.26-0.75l232.47-112.23
			c2.59-1.25,4.24-3.88,4.24-6.75V119.73C495.97,116.85,494.32,114.22,491.73,112.97z M256,15.83l215.22,103.9l-62.39,30.12
			c-0.39-0.3-0.81-0.58-1.27-0.8L193.8,45.85L256,15.83z M176.87,54.33l214.9,103.75l-44.02,21.25L132.94,75.62L176.87,54.33z
			 M396.8,172.31v78.55l-41.11,19.85v-78.55L396.8,172.31z M480.97,387.57L263.5,492.55V236.66l51.87-25.04
			c3.73-1.8,5.29-6.28,3.49-10.01c-1.8-3.73-6.28-5.29-10.02-3.49L256,223.62l-20.8-10.04c-3.73-1.8-8.21-0.24-10.01,3.49
			s-0.24,8.21,3.49,10.01l19.82,9.57v255.89L31.03,387.57V131.67l165.6,79.94c1.05,0.51,2.16,0.75,3.26,0.75
			c2.79,0,5.47-1.56,6.76-4.24c1.8-3.73,0.24-8.21-3.49-10.01L40.78,119.72l74.5-35.97l225.29,108.76c0.03,0.05,0.07,0.09,0.1,0.13
			v90c0,2.58,1.33,4.98,3.51,6.35c1.21,0.76,2.6,1.15,3.99,1.15c1.11,0,2.23-0.25,3.26-0.75l56.11-27.09
			c2.59-1.25,4.24-3.88,4.24-6.75v-90.49l69.17-33.39L480.97,387.57L480.97,387.57z"/>
	</g>
</g>
<g>
	<g>
		<path d="M92.93,358.48l-34.12-16.47c-3.73-1.8-8.21-0.24-10.01,3.49s-0.24,8.21,3.49,10.02l34.12,16.47
			c1.05,0.51,2.16,0.75,3.25,0.75c2.79,0,5.47-1.56,6.76-4.24C98.22,364.76,96.66,360.28,92.93,358.48z"/>
	</g>
</g>
<g>
	<g>
		<path d="M124.32,338.04l-65.46-31.6c-3.73-1.8-8.21-0.24-10.01,3.49c-1.8,3.73-0.24,8.21,3.49,10.02l65.46,31.6
			c1.05,0.51,2.16,0.75,3.25,0.75c2.79,0,5.47-1.56,6.76-4.24C129.62,344.33,128.05,339.84,124.32,338.04z"/>
	</g>
</g>
</svg>
