<?xml version="1.0" encoding="utf-8"?>
<!-- Generator: Adobe Illustrator 24.3.0, SVG Export Plug-In . SVG Version: 6.00 Build 0)  -->
<svg version="1.1" id="Layer_1" xmlns="http://www.w3.org/2000/svg" xmlns:xlink="http://www.w3.org/1999/xlink" x="0px" y="0px"
	 viewBox="0 0 966 966" style="enable-background:new 0 0 966 966;" xml:space="preserve">
<g id="surface1">
	<path d="M77.9,856.61H483v-31.17H77.9c-25.81,0-46.74-20.93-46.74-46.74V93.15c0-25.82,20.93-46.74,46.74-46.74h685.55
		c25.83,0,46.74,20.92,46.74,46.74V451.5h31.17V93.15c-0.05-43-34.9-77.85-77.91-77.9H77.9c-43,0.05-77.85,34.9-77.9,77.9V778.7
		C0.05,821.7,34.91,856.55,77.9,856.61z"/>
	<path d="M62.33,77.57h31.16v31.16H62.33V77.57z"/>
	<path d="M124.64,77.57h31.17v31.16h-31.17V77.57z"/>
	<path d="M186.97,77.57h31.16v31.16h-31.16V77.57z"/>
	<path d="M62.33,139.89h716.7v31.17H62.33V139.89z"/>
	<path d="M222.7,206.78l-39.58,39.58c-33.45-22.15-78.25-15.35-103.64,15.72c-25.38,31.07-23.11,76.32,5.26,104.68
		c28.36,28.38,73.62,30.65,104.69,5.26c31.07-25.38,37.87-70.19,15.71-103.63l39.57-39.58L222.7,206.78z M140.22,358.02
		c-25.81,0-46.74-20.92-46.74-46.74c0-25.82,20.93-46.74,46.74-46.74c6.95,0.02,13.79,1.62,20.03,4.67l-31.03,31.04l22.03,22.03
		l31.06-31.02c3.05,6.23,4.65,13.07,4.67,20.02C186.97,337.09,166.05,358.02,140.22,358.02z"/>
	<path d="M264.87,264.54h264.86v31.16H264.87V264.54z"/>
	<path d="M264.87,326.86h109.06v31.16H264.87V326.86z"/>
	<path d="M405.1,326.86h218.12v31.16H405.1V326.86z"/>
	<path d="M560.9,264.54h155.81v31.16H560.9V264.54z"/>
	<path d="M222.7,393.75l-39.58,39.58c-33.45-22.15-78.25-15.35-103.64,15.72c-25.38,31.07-23.11,76.32,5.26,104.69
		c28.36,28.37,73.62,30.64,104.69,5.26c31.07-25.39,37.87-70.18,15.71-103.63l39.57-39.58L222.7,393.75z M140.22,544.99
		c-25.81,0-46.74-20.93-46.74-46.74c0-25.82,20.93-46.75,46.74-46.75c6.95,0.03,13.79,1.62,20.03,4.67l-31.03,31.05l22.03,22.03
		l31.06-31.02c3.05,6.24,4.65,13.07,4.67,20.02C186.97,524.06,166.05,544.99,140.22,544.99z"/>
	<path d="M264.87,451.5h264.86v31.16H264.87V451.5z"/>
	<path d="M264.87,513.83h109.06v31.16H264.87V513.83z"/>
	<path d="M405.1,513.83h124.64v31.16H405.1V513.83z"/>
	<path d="M560.9,451.5h62.32v31.16H560.9V451.5z"/>
	<path d="M222.7,580.71l-39.58,39.58c-33.45-22.15-78.25-15.35-103.64,15.72c-25.38,31.07-23.11,76.32,5.26,104.69
		c28.36,28.37,73.62,30.64,104.69,5.26c31.07-25.39,37.87-70.18,15.71-103.64l39.57-39.57L222.7,580.71z M140.22,731.96
		c-25.81,0-46.74-20.93-46.74-46.74c0-25.82,20.93-46.74,46.74-46.74c6.95,0.02,13.79,1.62,20.03,4.67l-31.03,31.05l22.03,22.03
		l31.06-31.02c3.05,6.24,4.65,13.08,4.67,20.02C186.97,711.03,166.05,731.96,140.22,731.96z"/>
	<path d="M264.87,638.47h202.55v31.17H264.87V638.47z"/>
	<path d="M264.87,700.8h109.06v31.16H264.87V700.8z"/>
	<path d="M405.1,700.8h62.32v31.16H405.1V700.8z"/>
	<path d="M732.29,950.09C861.37,950.09,966,845.45,966,716.38c0-129.08-104.63-233.71-233.71-233.71S498.58,587.3,498.58,716.38
		C498.73,845.39,603.28,949.93,732.29,950.09z M732.29,513.83c111.86,0,202.55,90.68,202.55,202.55s-90.69,202.55-202.55,202.55
		c-111.87,0-202.56-90.68-202.56-202.55C529.87,604.57,620.48,513.95,732.29,513.83z"/>
	<path d="M637.25,724.99l-27.89,13.93l31.16,62.32c2.23,4.48,6.5,7.62,11.45,8.42c0.8,0.12,1.61,0.19,2.42,0.2
		c4.13,0,8.09-1.64,11.02-4.57l186.96-186.97l-22.03-22.03L658.65,767.98L637.25,724.99z"/>
</g>
</svg>
