<?xml version="1.0" encoding="utf-8"?>
<!-- Generator: Adobe Illustrator 24.3.0, SVG Export Plug-In . SVG Version: 6.00 Build 0)  -->
<svg version="1.1" id="Capa_1" xmlns="http://www.w3.org/2000/svg" xmlns:xlink="http://www.w3.org/1999/xlink" x="0px" y="0px"
	 viewBox="0 0 512 512" style="enable-background:new 0 0 512 512;" xml:space="preserve">
<g>
	<g>
		<path d="M228.81,512c-4.17,0-7.99-2.7-9.4-6.61c-1.42-3.92-0.18-8.47,3.06-11.11c3.34-2.72,8.13-2.99,11.75-0.67
			c3.39,2.17,5.17,6.31,4.41,10.27C237.74,508.53,233.56,512,228.81,512L228.81,512z"/>
		<g>
			<path d="M384.26,339.3h-17.28c-5.52,0-10-4.48-10-10s4.48-10,10-10h17.28c5.52,0,10,4.48,10,10S389.78,339.3,384.26,339.3z"/>
		</g>
		<path d="M440.76,161.55L395.38,27.11c-3.4-10.08-10.53-18.23-20.06-22.96c-9.53-4.72-20.34-5.45-30.42-2.05L86.88,89.2
			c-20.81,7.02-32.03,29.67-25,50.48l2.33,6.91H42.43c-5.52,0-10,4.48-10,10V502c0,5.52,4.48,10,10,10h141c5.52,0,10-4.48,10-10
			c0-5.52-4.48-10-10-10h-131v-25.12H391.8c23.52,0,42.65-19.13,42.65-42.65v-43.36h25.12v43.36c0,37.37-30.4,67.77-67.77,67.77
			H273.84c-5.52,0-10,4.48-10,10c0,5.52,4.48,10,10,10H391.8c48.39,0,87.77-39.37,87.77-87.77V234.36
			C479.57,204.08,464.15,177.33,440.76,161.55L440.76,161.55z M80.83,133.29c-3.5-10.36,2.09-21.64,12.45-25.14L351.3,21.06
			c5.02-1.69,10.4-1.33,15.15,1.02c4.75,2.35,8.29,6.41,9.99,11.43l39.29,116.4c-7.61-2.16-15.63-3.31-23.92-3.31h-2.52
			l-16.61-49.21c-0.85-2.51-2.66-4.59-5.04-5.76c-2.38-1.18-5.12-1.36-7.64-0.51c-20.04,6.77-25.61,2.75-35.07-25.26
			c-1.77-5.23-7.44-8.04-12.67-6.28l-164.58,55.55c-5.23,1.77-8.04,7.44-6.28,12.67c2.1,6.23,4.16,12.95,5,18.8H85.32L80.83,133.29z
			 M163.35,130.94l146.02-49.29c6.88,17.51,16.6,32.14,37.06,32.13c3.16,0,6.59-0.35,10.29-1.09l10.77,31.92
			c-1.33,0.64-2.59,1.3-3.79,1.99H166.53C166.03,141.49,164.85,136.21,163.35,130.94z M77.86,166.59c0.18,0.01,0.37,0.01,0.55,0
			H391.8c37.37,0,67.77,30.4,67.77,67.77v43.36h-25.12v-43.36c0-23.52-19.13-42.65-42.65-42.65H52.43v-25.12L77.86,166.59z
			 M414.45,424.23c0,12.49-10.16,22.65-22.65,22.65H52.43V211.71H391.8c12.49,0,22.65,10.16,22.65,22.65v43.36h-47.19
			c-28.44,0-51.57,23.14-51.57,51.57s23.14,51.57,51.57,51.57h47.19V424.23z M367.26,360.87c-17.41,0-31.57-14.16-31.57-31.57
			s14.16-31.57,31.57-31.57h92.31v63.15H367.26z"/>
	</g>
</g>
</svg>
